<svg xmlns="http://www.w3.org/2000/svg" width="256" height="256" viewBox="0 0 100 100"><rect width="100" height="100" rx="50" fill="#f6e2ca"></rect><path fill="#432602" d="M66.56 32.64L66.56 33.68Q66.08 38.96 63.20 42.92Q60.32 46.88 55.84 49.04L55.84 49.04Q47.28 53.36 36 53.36L36 53.36Q34 53.36 32.32 53.12L32.32 53.12Q25.68 69.92 25.68 75.76L25.68 75.76Q25.68 76.96 26 77.52L26 77.52L15.68 77.52Q17.92 67.84 25.12 50.64L25.12 50.64Q34.72 27.76 37.52 24.64L37.52 24.64Q30.72 24.80 23.72 27.40Q16.72 30.00 15.60 33.60L15.60 33.60Q15.52 33.84 15.28 33.84L15.28 33.84Q14.56 33.84 14.56 32.80L14.56 32.80Q14.56 32.64 14.72 32.00L14.72 32.00Q16.24 27.60 19.12 25.20Q22 22.80 24.76 22.24Q27.52 21.68 31.60 21.68L31.60 21.68L51.84 21.68Q59.12 21.68 62.84 24.80Q66.56 27.92 66.56 32.64L66.56 32.64ZM33.76 51.84Q39.52 51.84 45.24 49.84Q50.96 47.84 54.64 43.72Q58.32 39.60 58.32 33.92L58.32 33.92Q58.32 24.80 47.28 24.08L47.28 24.08Q42 30.64 34.48 47.92L34.48 47.92L32.80 51.84L33.76 51.84ZM84.96 57.04L84.96 57.04Q85.44 57.04 85.44 58.56Q85.44 60.08 84.12 62.32Q82.80 64.56 82.04 65.72Q81.28 66.88 79.44 69.44Q77.60 72 76.24 73.12Q74.88 74.24 72.80 75.76L72.80 75.76Q69.28 78.32 63.64 78.32Q58 78.32 55.48 75.48Q52.96 72.64 52.96 68.08L52.96 68.08Q52.96 59.68 58.92 52.68Q64.88 45.68 72.96 45.68L72.96 45.68Q76.56 45.68 78.72 47.56Q80.88 49.44 80.88 52.04Q80.88 54.64 79.44 56.56Q78 58.48 76.16 58.48L76.16 58.48Q72.56 58.48 72.56 55.52L72.56 55.52Q72.56 54.56 74.56 53.68L74.56 53.68Q75.36 53.36 76 52.48Q76.64 51.60 76.64 50.16L76.64 50.16Q76.64 48.08 74.40 48.08L74.40 48.08Q69.60 48.08 64.88 55.04Q60.16 62 60.16 68.52Q60.16 75.04 65.84 75.04L65.84 75.04Q73.76 75.04 81.28 62.80L81.28 62.80Q82.80 60.40 83.80 58.72Q84.80 57.04 84.96 57.04Z"></path></svg>